<svg xmlns="http://www.w3.org/2000/svg" width="30" height="30" viewBox="0 0 30 30"><defs><linearGradient id="6evca" x1="0" x2="30" y1="15.02" y2="15.02" gradientUnits="userSpaceOnUse"><stop offset="0" stop-color="#ff9d00"/><stop offset=".6" stop-color="#ff670a"/><stop offset="1" stop-color="#ff2800"/></linearGradient></defs><g><g><path fill="url(#6evca)" d="M26.495 7.007a.5.5 0 1 0-1.002 0 .5.5 0 0 0 1.002 0zm1 0a1.501 1.501 0 1 1-3.002 0 1.501 1.501 0 0 1 3.002 0zm-9.008 0a.5.5 0 1 0-1 0 .5.5 0 0 0 1 0zm1 0a1.501 1.501 0 1 1-3.002 0 1.501 1.501 0 0 1 3.003 0zm3.004 0a.5.5 0 1 0-1.001 0 .5.5 0 0 0 1 0zm1 0a1.501 1.501 0 1 1-3.002 0 1.501 1.501 0 0 1 3.003 0zm5.506 0C28.997 3.695 25.854 1 21.99 1c-3.863 0-7.006 2.694-7.006 6.006a5.385 5.385 0 0 0 1.17 3.32.5.5 0 0 1 .096.406l-.594 2.971 3.078-1.23a.507.507 0 0 1 .368 0c.92.357 1.9.54 2.888.538 3.864 0 7.007-2.694 7.007-6.005zM21.99 0c4.415 0 8.008 3.143 8.008 7.007 0 3.863-3.593 7.006-8.008 7.006a8.93 8.93 0 0 1-3.067-.538l-3.754 1.502a.5.5 0 0 1-.676-.563l.731-3.657a6.35 6.35 0 0 1-1.241-3.75C13.983 3.143 17.575 0 21.99 0zM.558 4.828a.504.504 0 0 1-.55-.446A1.501 1.501 0 0 1 .83 2.887L6.572.185a1.493 1.493 0 0 1 1.934.55l3.565 5.538c.376.593.29 1.368-.208 1.864l-2.241 2.24a.493.493 0 0 0-.144.416c.131 1.022.72 3.69 3.394 6.364 2.674 2.674 5.34 3.264 6.36 3.394a.498.498 0 0 0 .417-.143l2.241-2.241a1.495 1.495 0 0 1 1.859-.214l5.548 3.572c.656.41.891 1.252.542 1.942l-2.694 5.72a1.513 1.513 0 0 1-1.499.833c-4.323-.455-10.792-2.313-17.06-8.58A29.911 29.911 0 0 1 .773 8.392a.495.495 0 0 1 .355-.617.506.506 0 0 1 .61.35 28.912 28.912 0 0 0 7.557 12.608c6.06 6.06 12.293 7.853 16.456 8.292a.486.486 0 0 0 .494-.276l2.695-5.72a.5.5 0 0 0-.177-.658l-5.55-3.571a.5.5 0 0 0-.614.074l-2.24 2.24c-.329.33-.79.489-1.252.43-1.124-.144-4.05-.79-6.942-3.68-2.892-2.892-3.536-5.819-3.68-6.942-.06-.461.099-.925.43-1.251l2.24-2.241a.5.5 0 0 0 .07-.62L7.66 1.273a.5.5 0 0 0-.65-.188L1.267 3.788a.49.49 0 0 0-.264.489.5.5 0 0 1-.445.55z"/></g></g></svg>