<svg xmlns="http://www.w3.org/2000/svg" width="30" height="30" viewBox="0 0 30 30"><defs><linearGradient id="6ykra" x1="0" x2="30" y1="15" y2="15" gradientUnits="userSpaceOnUse"><stop offset="0" stop-color="#ff9d00"/><stop offset=".6" stop-color="#ff670a"/><stop offset="1" stop-color="#ff2800"/></linearGradient></defs><g><g><path fill="url(#6ykra)" d="M21.888 24.383l-2.905 2.905a.586.586 0 0 0 .829.829l2.905-2.905a.586.586 0 0 0-.829-.829zm-9.999.223l-2.897 2.897a.586.586 0 0 0 .829.828l2.897-2.897a.586.586 0 0 0-.829-.828zm-3.945 4.188a.59.59 0 0 0-.586.586.59.59 0 0 0 .586.585.59.59 0 0 0 .586-.585.59.59 0 0 0-.586-.586zM1.52 27.652L.172 29a.586.586 0 0 0 .828.828l1.348-1.347a.586.586 0 0 0-.829-.829zm8.115-7.286a.586.586 0 0 0-.829 0l-5.47 5.47a.586.586 0 0 0 .83.828l5.47-5.47a.586.586 0 0 0 0-.828zm7.68-1.067L28.829 2.678v20.143zm-.352 4.801v-3.683l2.87.878zm7.623-17.355l-8.69 12.546a.586.586 0 0 0-.105.333v3.585l-2.568-4.674zm5.12-6.668a.586.586 0 0 0-.59.005L18.379 6.43a.586.586 0 1 0 .597 1.009l7.704-4.556-14.35 14.89-7.137-2.184 9.314-5.508a.586.586 0 0 0-.596-1.009L3.452 15.257a.586.586 0 0 0 .127 1.065l8.523 2.608 3.76 6.844a.584.584 0 0 0 .923.137l4.324-4.226 8.134 2.489a.587.587 0 0 0 .757-.56V.585a.586.586 0 0 0-.296-.509z"/></g></g></svg>