<svg xmlns="http://www.w3.org/2000/svg" width="30" height="30" viewBox="0 0 30 30"><defs><linearGradient id="lai4a" x1="0" x2="30" y1="15" y2="15" gradientUnits="userSpaceOnUse"><stop offset="0" stop-color="#ff9d00"/><stop offset=".6" stop-color="#ff670a"/><stop offset="1" stop-color="#ff2800"/></linearGradient></defs><g><g><path fill="url(#lai4a)" d="M3.985 11.485V6.593a.586.586 0 1 0-1.172 0v4.892a.586.586 0 1 0 1.172 0zM24.258 30A5.749 5.749 0 0 0 30 24.258V5.743A5.75 5.75 0 0 0 24.258 0H5.742A5.75 5.75 0 0 0 0 5.743v18.515A5.749 5.749 0 0 0 5.742 30H15a.586.586 0 0 0 .586-.586v-4.54a.586.586 0 0 0-1.172 0v3.954H5.742c-2.52 0-4.57-2.05-4.57-4.57V5.743c0-2.52 2.05-4.57 4.57-4.57h18.516c2.52 0 4.57 2.05 4.57 4.57v18.515c0 2.52-2.05 4.57-4.57 4.57h-3.75V18.487h3.397c.3 0 .553-.228.583-.527l.421-4.187a.585.585 0 0 0-.583-.645h-3.818v-2.199c0-.397.127-.545.468-.545H24.3a.585.585 0 0 0 .586-.586V5.716a.586.586 0 0 0-.586-.586h-4.366c-2.474 0-3.786 1.087-4.451 1.998-.93 1.275-1.069 2.78-1.069 3.565v2.462h-2.871a.586.586 0 0 0-.586.585v4.16c0 .324.262.587.586.587h2.871v1.67a.586.586 0 0 0 1.172 0V17.9a.585.585 0 0 0-.586-.586H12.13v-2.99H15a.586.586 0 0 0 .586-.585v-3.047c0-1.32.424-4.391 4.348-4.391h3.78v2.91h-2.738c-.757 0-1.64.45-1.64 1.717v2.785c0 .324.262.586.586.586h3.756l-.303 3.015h-3.453a.585.585 0 0 0-.586.586v11.513c0 .324.262.586.586.586z"/></g></g></svg>