<svg xmlns="http://www.w3.org/2000/svg" width="30" height="30" viewBox="0 0 30 30"><defs><linearGradient id="g73za" x1="0" x2="30" y1="15" y2="15" gradientUnits="userSpaceOnUse"><stop offset="0" stop-color="#ff9d00"/><stop offset=".6" stop-color="#ff670a"/><stop offset="1" stop-color="#ff2800"/></linearGradient></defs><g><g><path fill="url(#g73za)" d="M22.69 6.255a1.056 1.056 0 0 0 0 2.11 1.056 1.056 0 0 0 0-2.11zm0 3.281a2.23 2.23 0 0 1-2.226-2.226c0-1.228.999-2.227 2.226-2.227 1.228 0 2.227.999 2.227 2.227a2.23 2.23 0 0 1-2.227 2.226zM15 23.086c-4.458 0-8.086-3.627-8.086-8.086 0-1.4.363-2.778 1.05-3.988a.586.586 0 0 1 1.019.58A6.91 6.91 0 0 0 8.086 15 6.922 6.922 0 0 0 15 21.914 6.922 6.922 0 0 0 21.914 15a6.922 6.922 0 0 0-10.081-6.148.586.586 0 1 1-.537-1.042A8.11 8.11 0 0 1 15 6.914c4.458 0 8.086 3.627 8.086 8.086 0 4.459-3.628 8.086-8.086 8.086zm6.21 4.336h-3.535a.586.586 0 1 1 0-1.172h3.536a5.045 5.045 0 0 0 5.039-5.039V8.79c0-2.779-2.26-5.039-5.04-5.039H8.79a5.044 5.044 0 0 0-5.04 5.04V21.21c0 2.778 2.26 5.04 5.04 5.04h3.573a.586.586 0 1 1 0 1.171H8.79a6.218 6.218 0 0 1-6.21-6.21V8.788a6.218 6.218 0 0 1 6.21-6.211h12.422a6.218 6.218 0 0 1 6.21 6.211v12.422a6.218 6.218 0 0 1-6.21 6.211zM8.79 1.172c-4.202 0-7.618 3.417-7.618 7.617v12.422c0 4.2 3.416 7.617 7.617 7.617h12.422c4.2 0 7.617-3.417 7.617-7.617V8.79c0-4.2-3.417-7.617-7.617-7.617zM21.21 30H8.79C3.941 30 0 26.058 0 21.211V8.79C0 3.943 3.942 0 8.79 0H21.21C26.057 0 30 3.943 30 8.79V21.21c0 4.847-3.943 8.79-8.79 8.79zM15 10.9A4.106 4.106 0 0 0 10.898 15 4.106 4.106 0 0 0 15 19.102 4.106 4.106 0 0 0 19.102 15 4.106 4.106 0 0 0 15 10.9zm0 9.375A5.28 5.28 0 0 1 9.727 15 5.28 5.28 0 0 1 15 9.727 5.28 5.28 0 0 1 20.273 15 5.28 5.28 0 0 1 15 20.274z"/></g></g></svg>