<svg xmlns="http://www.w3.org/2000/svg" width="30" height="30" viewBox="0 0 30 30"><defs><linearGradient id="ina9a" x1="0" x2="30" y1="15" y2="15" gradientUnits="userSpaceOnUse"><stop offset="0" stop-color="#ff9d00"/><stop offset=".6" stop-color="#ff670a"/><stop offset="1" stop-color="#ff2800"/></linearGradient></defs><g><g><path fill="url(#ina9a)" d="M23.357 3.399a.586.586 0 0 0-.585-.586h-4.776a.586.586 0 1 0 0 1.172h4.776a.586.586 0 0 0 .585-.586zM9.387 7.587c0 .992-.808 1.8-1.8 1.8-.993 0-1.801-.808-1.801-1.8 0-.993.808-1.8 1.8-1.8.993 0 1.8.807 1.8 1.8zm1.172 0a2.975 2.975 0 0 0-2.973-2.973 2.976 2.976 0 0 0-2.972 2.973 2.976 2.976 0 0 0 2.972 2.972 2.976 2.976 0 0 0 2.973-2.972zm-.84 17.799a.586.586 0 0 0 .586-.586V11.76a.586.586 0 0 0-.586-.585H5.453a.586.586 0 0 0-.586.585v4.88a.586.586 0 0 0 1.172 0v-4.294h3.094v11.867H6.04V21.62a.586.586 0 1 0-1.172 0V24.8c0 .323.263.586.586.586H9.72zm11.675-1.172v-7.192c0-.742-.303-1.454-.831-1.954a2.476 2.476 0 0 0-1.852-.686l-.15.008c-1.543.084-2.753 1.409-2.753 3.015v6.809h-3.063V12.347h3.094v1.538a.586.586 0 0 0 1.059.347c.585-.797 1.176-1.368 1.754-1.698.56-.319 1.265-.481 2.096-.481 1.1 0 1.93.338 2.535 1.032.618.71.93 1.863.93 3.427v7.702h-2.82zm3.406 1.172a.587.587 0 0 0 .586-.587v-8.287c0-1.856-.41-3.268-1.22-4.197-.829-.951-1.98-1.434-3.418-1.434-1.037 0-1.937.213-2.677.635-.356.203-.71.473-1.06.804v-.559a.586.586 0 0 0-.586-.585H12.16a.586.586 0 0 0-.585.585V24.8c0 .323.262.586.585.586h4.235a.586.586 0 0 0 .586-.586v-7.394c0-.985.723-1.795 1.646-1.846l.15-.008c.36-.02.71.11.981.367.296.28.465.682.465 1.103V24.8c0 .323.262.586.586.586H24.8zm1.333-24.214a2.698 2.698 0 0 1 2.695 2.695v22.266a2.699 2.699 0 0 1-2.695 2.695H3.867a2.699 2.699 0 0 1-2.695-2.695V3.867a2.698 2.698 0 0 1 2.695-2.695zm0 28.828A3.872 3.872 0 0 0 30 26.133V3.867A3.871 3.871 0 0 0 26.133 0H3.867A3.871 3.871 0 0 0 0 3.867v22.266A3.872 3.872 0 0 0 3.867 30h22.266z"/></g></g></svg>