<svg xmlns="http://www.w3.org/2000/svg" width="32" height="25" viewBox="0 0 32 25"><defs><linearGradient id="w768a" x1="0" x2="31.65" y1="12.51" y2="12.51" gradientUnits="userSpaceOnUse"><stop offset="0" stop-color="#ff9d00"/><stop offset=".6" stop-color="#ff670a"/><stop offset="1" stop-color="#ff2800"/></linearGradient></defs><g><g><path fill="url(#w768a)" d="M26.865 8.93a.495.495 0 0 0-.302.632 2.475 2.475 0 0 1-2.332 3.295 2.475 2.475 0 0 1-2.473-2.472 2.475 2.475 0 0 1 3.297-2.332.494.494 0 1 0 .33-.933 3.465 3.465 0 0 0-4.616 3.264 3.466 3.466 0 0 0 3.462 3.462 3.466 3.466 0 0 0 3.265-4.613.495.495 0 0 0-.63-.302zm-8.406 0a.495.495 0 0 0-.302.632 2.475 2.475 0 0 1-2.332 3.295 2.475 2.475 0 0 1-2.473-2.472 2.475 2.475 0 0 1 3.297-2.332.494.494 0 1 0 .33-.933 3.465 3.465 0 0 0-4.616 3.264 3.466 3.466 0 0 0 3.461 3.462 3.466 3.466 0 0 0 3.265-4.613.495.495 0 0 0-.63-.302zm-8.407 0a.495.495 0 0 0-.302.632 2.475 2.475 0 0 1-2.332 3.295 2.475 2.475 0 0 1-2.473-2.472 2.475 2.475 0 0 1 3.297-2.332.494.494 0 1 0 .33-.933 3.465 3.465 0 0 0-4.616 3.264 3.466 3.466 0 0 0 3.462 3.462 3.466 3.466 0 0 0 3.265-4.613.495.495 0 0 0-.631-.302zm20.607 8.378a2.475 2.475 0 0 1-2.472 2.472H8.407a.495.495 0 0 0-.35.145l-4.101 4.1v-3.75a.495.495 0 0 0-.494-.495 2.475 2.475 0 0 1-2.473-2.472V3.462A2.475 2.475 0 0 1 3.462.989h24.725a2.475 2.475 0 0 1 2.472 2.473zM28.187 0H3.462A3.465 3.465 0 0 0 0 3.462v13.846a3.467 3.467 0 0 0 2.967 3.426v3.292a.986.986 0 0 0 .99.99c.257 0 .509-.101.698-.29l3.956-3.957h19.576a3.465 3.465 0 0 0 3.461-3.461V3.462A3.465 3.465 0 0 0 28.187 0z"/></g></g></svg>